<svg xmlns="http://www.w3.org/2000/svg" width="48" height="48" viewBox="0 0 48 48"><defs><style>.a{opacity:0.5;}.b{fill:#0f3759;}.c{fill:none;}</style></defs><g class="a" transform="translate(0.464 0.464)"><path class="b" d="M35.657,36.95H9.317A7.317,7.317,0,0,1,2,29.634V28.17A13.17,13.17,0,0,1,15.17,15H29.8a13.17,13.17,0,0,1,13.17,13.17v1.463A7.317,7.317,0,0,1,35.657,36.95ZM15.17,17.927A10.244,10.244,0,0,0,4.927,28.17v1.463a4.39,4.39,0,0,0,4.39,4.39h26.34a4.39,4.39,0,0,0,4.39-4.39V28.17A10.244,10.244,0,0,0,29.8,17.927Z" transform="translate(1.049 7.073)"/><path class="b" d="M27.56,10.78V9.317A7.317,7.317,0,0,0,20.244,2H17.317A7.317,7.317,0,0,0,10,9.317V10.78A7.317,7.317,0,0,0,17.317,18.1h2.927A7.317,7.317,0,0,0,27.56,10.78Zm-14.634,0V9.317a4.39,4.39,0,0,1,4.39-4.39h2.927a4.39,4.39,0,0,1,4.39,4.39V10.78a4.39,4.39,0,0,1-4.39,4.39H17.317A4.39,4.39,0,0,1,12.927,10.78Zm17.56,23.414v2.927H18.78V34.194Z" transform="translate(4.756 1.049)"/><rect class="c" width="48" height="48" transform="translate(-0.464 -0.464)"/></g></svg>