<svg xmlns="http://www.w3.org/2000/svg" width="35" height="35" viewBox="0 0 35 35"><defs><style>.a{fill:rgba(0,0,0,0);}.b{fill:#e68f00;}</style></defs><rect class="a" width="35" height="35"/><path class="b" d="M46.081,51.552a1.613,1.613,0,0,1-.863-.255L38.4,46.975a.62.62,0,0,0-.657,0L31.4,50.991a1.836,1.836,0,0,1-.982.291h0a1.881,1.881,0,0,1-1.469-.731,1.9,1.9,0,0,1-.336-1.65l1.828-7.19a.689.689,0,0,0-.221-.7L24.1,35.926a1.674,1.674,0,0,1-.517-1.815,1.613,1.613,0,0,1,1.449-1.138l7.989-.518a.64.64,0,0,0,.547-.406l2.98-7.5a1.625,1.625,0,0,1,3.036,0l2.978,7.5a.643.643,0,0,0,.551.41l7.986.518a1.613,1.613,0,0,1,1.449,1.138,1.674,1.674,0,0,1-.517,1.815l-6.117,5.092a.687.687,0,0,0-.219.692l1.971,7.755a1.669,1.669,0,0,1-.3,1.446A1.651,1.651,0,0,1,46.081,51.552Zm-8.014-5.674a1.608,1.608,0,0,1,.865.252l6.821,4.321a.607.607,0,0,0,.328.1.644.644,0,0,0,.5-.255.666.666,0,0,0,.115-.586l-1.971-7.753a1.693,1.693,0,0,1,.546-1.706l6.12-5.094a.672.672,0,0,0,.206-.737.632.632,0,0,0-.563-.45l-7.989-.518a1.647,1.647,0,0,1-1.414-1.042l-2.978-7.5,0-.007a.625.625,0,0,0-1.169,0l0,.007-2.979,7.5a1.644,1.644,0,0,1-1.409,1.038l-7.992.519a.632.632,0,0,0-.563.45.672.672,0,0,0,.206.737l6.117,5.092a1.7,1.7,0,0,1,.548,1.709L29.58,49.147a.9.9,0,0,0,.156.789.874.874,0,0,0,.68.345h0a.826.826,0,0,0,.447-.136L37.2,46.13A1.607,1.607,0,0,1,38.067,45.878Z" transform="translate(-20.733 -20.733)"/></svg>