<svg xmlns="http://www.w3.org/2000/svg" xmlns:xlink="http://www.w3.org/1999/xlink" width="401" height="150" viewBox="0 0 401 150"><defs><style>.a{fill:#fff;}.b,.c{fill:#0f3759;}.b{opacity:0.2;}.c{opacity:0.1;}.d{filter:url(#a);}</style><filter id="a" x="0" y="0" width="401" height="150" filterUnits="userSpaceOnUse"><feOffset input="SourceAlpha"/><feGaussianBlur stdDeviation="7.5" result="b"/><feFlood flood-opacity="0.161"/><feComposite operator="in" in2="b"/><feComposite in="SourceGraphic"/></filter></defs><g transform="translate(-585.5 -470.5)"><g class="d" transform="matrix(1, 0, 0, 1, 585.5, 470.5)"><path class="a" d="M7,0H98a7,7,0,0,1,7,7V349a7,7,0,0,1-7,7H7a7,7,0,0,1-7-7V7A7,7,0,0,1,7,0Z" transform="translate(22.5 127.5) rotate(-90)"/></g><rect class="b" width="80" height="91" rx="7" transform="translate(615 500)"/><rect class="b" width="97" height="10" rx="5" transform="translate(709 518)"/><rect class="c" width="232" height="7" rx="3.5" transform="translate(709 541)"/><rect class="c" width="232" height="7" rx="3.5" transform="translate(709 554)"/><rect class="c" width="190" height="7" rx="3.5" transform="translate(709 567)"/></g></svg>